<svg width="93" height="82" viewBox="0 0 93 82" fill="none" xmlns="http://www.w3.org/2000/svg">
<path fill-rule="evenodd" clip-rule="evenodd" d="M81.375 23.0625V71.75C81.375 74.4685 80.1502 77.0756 77.9701 78.9978C75.79 80.9201 72.8331 82 69.75 82H63.9375V76.875H69.75C71.2916 76.875 72.77 76.335 73.8601 75.3739C74.9501 74.4128 75.5625 73.1092 75.5625 71.75V23.0625H63.9375C61.6251 23.0625 59.4075 22.2526 57.7724 20.8109C56.1373 19.3692 55.2188 17.4139 55.2188 15.375V5.125H23.25C21.7084 5.125 20.23 5.66495 19.1399 6.62608C18.0499 7.5872 17.4375 8.89077 17.4375 10.25V56.375H11.625V10.25C11.625 7.53153 12.8498 4.9244 15.0299 3.00216C17.21 1.07991 20.1669 0 23.25 0L55.2188 0L81.375 23.0625ZM9.3 60.7313H0V81.2261H4.59769V74.3484H9.26513C10.9333 74.3484 12.3516 74.0563 13.5199 73.4617C14.6998 72.8621 15.6007 72.0524 16.2111 71.0325C16.8445 69.9623 17.1661 68.77 17.1469 67.5629C17.1469 66.2816 16.8388 65.1234 16.2285 64.0932C15.6214 63.0692 14.6933 62.2207 13.5548 61.6486C12.3923 61.0336 10.9798 60.7313 9.3 60.7313ZM12.4678 67.5629C12.4888 68.2381 12.319 68.9074 11.9738 69.5104C11.664 70.0354 11.1819 70.4659 10.5904 70.7455C9.91373 71.0407 9.1653 71.185 8.41069 71.1657H4.58025V63.96H8.4165C9.68362 63.96 10.6776 64.2675 11.3925 64.8876C12.1074 65.5129 12.4678 66.4046 12.4678 67.5629ZM19.5416 60.7313V81.2261H28.0279C30.3587 81.2261 32.2943 80.8161 33.8288 80.0115C35.3816 79.1923 36.5942 77.9543 37.2872 76.4804C38.0428 74.9429 38.4264 73.0876 38.4264 70.9249C38.4264 68.7724 38.0486 66.9376 37.2872 65.4155C36.6024 63.9586 35.4014 62.736 33.8636 61.9305C32.3291 61.131 30.3819 60.7313 28.0221 60.7313H19.5416ZM24.1393 64.0369H27.4118C28.8533 64.0369 30.0274 64.2931 30.9516 64.8159C31.9108 65.369 32.6346 66.1875 33.0092 67.1426C33.4684 68.1728 33.6951 69.4591 33.6951 71.0017C33.7131 72.0239 33.5802 73.0438 33.2998 74.0358C33.0927 74.8181 32.7049 75.5543 32.1606 76.1985C31.6548 76.7732 30.9848 77.219 30.2192 77.49C29.3221 77.7859 28.3693 77.9286 27.4118 77.9102H24.1393V64.0369ZM45.8955 73.0723V81.2261H41.3036V60.7313H56.1139V64.0779H45.8955V69.8025H55.2304V73.0723H45.8955Z" fill="black"/>
</svg>
